<?xml version="1.0" encoding="utf-8"?>
<!-- Generator: Adobe Illustrator 26.0.1, SVG Export Plug-In . SVG Version: 6.00 Build 0)  -->
<svg version="1.1" id="Calque_1" xmlns="http://www.w3.org/2000/svg" xmlns:xlink="http://www.w3.org/1999/xlink" x="0px" y="0px"
	 viewBox="0 0 24 24" style="enable-background:new 0 0 24 24;" xml:space="preserve">
<style type="text/css">
	.st0{fill:none;}
	.st1{fill:#F8F8F8;}
</style>
<g>
	<path class="st0" d="M0,0h24v24H0V0z"/>
	<path class="st1" d="M18,10c0-3.3-2.7-6-6-6s-6,2.7-6,6v8h12V10z M20,18.7l0.4,0.5c0.2,0.2,0.1,0.5-0.1,0.7C20.2,20,20.1,20,20,20
		H4c-0.3,0-0.5-0.2-0.5-0.5c0-0.1,0-0.2,0.1-0.3L4,18.7V10c0-4.4,3.6-8,8-8s8,3.6,8,8V18.7z M9.5,21h5c0,1.4-1.1,2.5-2.5,2.5
		S9.5,22.4,9.5,21z"/>
</g>
</svg>
