<?xml version="1.0" encoding="utf-8"?>
<!-- Generator: Adobe Illustrator 26.0.1, SVG Export Plug-In . SVG Version: 6.00 Build 0)  -->
<svg version="1.1" id="Calque_1" xmlns="http://www.w3.org/2000/svg" xmlns:xlink="http://www.w3.org/1999/xlink" x="0px" y="0px"
	 viewBox="0 0 24 24" style="enable-background:new 0 0 24 24;" xml:space="preserve">
<style type="text/css">
	.st0{fill:none;}
	.st1{fill:#F8F8F8;}
</style>
<g>
	<path class="st0" d="M0,0h24v24H0V0z"/>
	<path class="st1" d="M20,22h-2v-2c0-1.7-1.3-3-3-3H9c-1.7,0-3,1.3-3,3v2H4v-2c0-2.8,2.2-5,5-5h6c2.8,0,5,2.2,5,5V22z M12,13
		c-3.3,0-6-2.7-6-6s2.7-6,6-6s6,2.7,6,6S15.3,13,12,13z M12,11c2.2,0,4-1.8,4-4s-1.8-4-4-4S8,4.8,8,7S9.8,11,12,11z"/>
</g>
</svg>
