<?xml version="1.0" encoding="utf-8"?>
<!-- Generator: Adobe Illustrator 26.0.1, SVG Export Plug-In . SVG Version: 6.00 Build 0)  -->
<svg version="1.1" id="Calque_1" xmlns="http://www.w3.org/2000/svg" xmlns:xlink="http://www.w3.org/1999/xlink" x="0px" y="0px"
	 viewBox="0 0 160 160" style="enable-background:new 0 0 160 160;" xml:space="preserve">
<style type="text/css">
	.st0{fill:#F8F8F8;}
</style>
<path class="st0" d="M57.5,30C47.9,30,40,37.9,40,47.5S47.9,65,57.5,65S75,57.1,75,47.5S67.1,30,57.5,30z M102.5,30
	C92.9,30,85,37.9,85,47.5S92.9,65,102.5,65S120,57.1,120,47.5S112.1,30,102.5,30z M57.5,40c4.2,0,7.5,3.3,7.5,7.5S61.7,55,57.5,55
	S50,51.7,50,47.5S53.3,40,57.5,40z M102.5,40c4.2,0,7.5,3.3,7.5,7.5s-3.3,7.5-7.5,7.5S95,51.7,95,47.5S98.3,40,102.5,40z M35,60
	c-11,0-20,9-20,20c0,5.6,2.4,10.6,6.1,14.2C14.4,98.7,10,106.4,10,115h10c0-8.3,6.7-15,15-15s15,6.7,15,15h10
	c0-8.6-4.4-16.3-11.1-20.8C52.6,90.6,55,85.6,55,80C55,69,46,60,35,60z M60,115c-3.1,4.2-5,9.4-5,15h10c0-8.3,6.7-15,15-15
	s15,6.7,15,15h10c0-5.6-1.9-10.8-5-15c-1.7-2.3-3.8-4.2-6.1-5.8c3.7-3.6,6.1-8.7,6.1-14.2c0-11-9-20-20-20s-20,9-20,20
	c0,5.6,2.4,10.6,6.1,14.2C63.8,110.8,61.7,112.7,60,115z M100,115h10c0-8.3,6.7-15,15-15s15,6.7,15,15h10c0-8.6-4.4-16.3-11.1-20.8
	c3.7-3.6,6.1-8.7,6.1-14.2c0-11-9-20-20-20s-20,9-20,20c0,5.6,2.4,10.6,6.1,14.2C104.4,98.7,100,106.4,100,115z M35,70
	c5.6,0,10,4.4,10,10s-4.4,10-10,10s-10-4.4-10-10S29.4,70,35,70z M125,70c5.6,0,10,4.4,10,10s-4.4,10-10,10s-10-4.4-10-10
	S119.4,70,125,70z M80,85c5.6,0,10,4.4,10,10s-4.4,10-10,10s-10-4.4-10-10S74.4,85,80,85z"/>
</svg>
