<?xml version="1.0" encoding="utf-8"?>
<!-- Generator: Adobe Illustrator 26.0.1, SVG Export Plug-In . SVG Version: 6.00 Build 0)  -->
<svg version="1.1" id="Calque_1" xmlns="http://www.w3.org/2000/svg" xmlns:xlink="http://www.w3.org/1999/xlink" x="0px" y="0px"
	 viewBox="0 0 24 24" style="enable-background:new 0 0 24 24;" xml:space="preserve">
<style type="text/css">
	.st0{fill:none;}
	.st1{fill:#F8F8F8;}
</style>
<g>
	<path class="st0" d="M0,0h24v24H0V0z"/>
	<path class="st1" d="M10,14.7L10,14.7c0-2.6,2-4.7,4.8-5.3C14.4,7.1,12,5.2,8.9,5.2C5.6,5.2,3,7.4,3,10c0,1,0.4,1.9,1,2.7
		c0,0,0.1,0.1,0.2,0.2c0.6,0.6,0.9,1.4,1,2.2c0.7-0.4,1.5-0.6,2.4-0.4c0.2,0,0.3,0,0.4,0.1C8.6,14.8,9.3,14.8,10,14.7L10,14.7z
		 M10.5,16.6c-0.9,0.2-1.8,0.2-2.8,0.1c-0.2,0-0.3,0-0.5-0.1c-0.4-0.1-0.8,0-1.1,0.2L4.3,18c-0.1,0.1-0.3,0.1-0.5,0.1
		c-0.4,0-0.8-0.4-0.7-0.8c0,0,0,0,0,0l0.2-1.8c0-0.5-0.1-0.9-0.4-1.2c-0.1-0.1-0.2-0.2-0.2-0.3c-1-1.1-1.5-2.5-1.5-4
		c0-3.7,3.5-6.8,7.9-6.8c4.1,0,7.4,2.6,7.9,6c3.4,0.2,6,2.5,6,5.4c0,1.2-0.5,2.3-1.2,3.2c-0.1,0.1-0.1,0.1-0.2,0.2
		c-0.3,0.3-0.4,0.6-0.4,1l0.1,1.4c0,0.3-0.2,0.7-0.6,0.7c0,0,0,0,0,0c-0.1,0-0.3,0-0.4-0.1l-1.5-0.9c-0.3-0.2-0.6-0.2-0.9-0.2
		c-0.1,0-0.3,0-0.4,0.1c-0.3,0-0.6,0.1-1,0.1C13.7,20,11.4,18.6,10.5,16.6z M17.4,17.9c0.6-0.1,1.1,0,1.7,0.2
		c0.1-0.6,0.4-1.1,0.8-1.5c0,0,0.1-0.1,0.1-0.1c0.5-0.6,0.7-1.2,0.7-1.9c0-1.8-1.9-3.4-4.4-3.4S12,12.8,12,14.6s1.9,3.4,4.4,3.4
		c0.2,0,0.5,0,0.7,0C17.2,18,17.3,18,17.4,17.9L17.4,17.9z"/>
</g>
</svg>
